HIERARCHY
ROOT hips
{
  OFFSET 0 10.6860622 2.3727825e-15
  CHANNELS 6 Xposition Yposition Zposition Yrotation Xrotation Zrotation
  JOINT leftUpperLeg
  {
    OFFSET 0.6642549969 -0.9402397400000004 0
    CHANNELS 3 Yrotation Xrotation Zrotation
    JOINT leftLowerLeg
    {
      OFFSET 0 -3.997221335632195 0
      CHANNELS 3 Yrotation Xrotation Zrotation
      JOINT leftFoot
      {
        OFFSET -0.13777839790000004 -4.6145792000000005 -0.22186036399999998
        CHANNELS 3 Yrotation Xrotation Zrotation
        JOINT leftToes
        {
          OFFSET -0.03777410834999995 -0.9130806927000008 0.85230013
          CHANNELS 3 Yrotation Xrotation Zrotation
          End Site
          {
            OFFSET -0.03777410834999995 -0.9130806927000008 0.85230013
          }
        }
      }
    }
  }
  JOINT rightUpperLeg
  {
    OFFSET -0.6642778626 -0.9402397400000004 0
    CHANNELS 3 Yrotation Xrotation Zrotation
    JOINT rightLowerLeg
    {
      OFFSET 0 -3.997221452859387 0
      CHANNELS 3 Yrotation Xrotation Zrotation
      JOINT rightFoot
      {
        OFFSET 0.1377926176 -4.6145792000000005 -0.22185782299999995
        CHANNELS 3 Yrotation Xrotation Zrotation
        JOINT rightToes
        {
          OFFSET 0.037780746850000047 -0.9130806927000008 0.85230167
          CHANNELS 3 Yrotation Xrotation Zrotation
          End Site
          {
            OFFSET 0.037780746850000047 -0.9130806927000008 0.85230167
          }
        }
      }
    }
  }
  JOINT spine
  {
    OFFSET 0 0.13988381660000015 0
    CHANNELS 3 Yrotation Xrotation Zrotation
    JOINT chest
    {
      OFFSET 0 0.6191039003973773 0
      CHANNELS 3 Yrotation Xrotation Zrotation
      JOINT upperChest
      {
        OFFSET 0 0.9855186130586943 0
        CHANNELS 3 Yrotation Xrotation Zrotation
        JOINT leftShoulder
        {
          OFFSET 0.1807663869 1.5087829790000005 0
          CHANNELS 3 Yrotation Xrotation Zrotation
          JOINT leftUpperArm
          {
            OFFSET 0.5985063006419806 0 0
            CHANNELS 3 Yrotation Xrotation Zrotation
            JOINT leftLowerArm
            {
              OFFSET 2.2993332369501065 0 0
              CHANNELS 3 Yrotation Xrotation Zrotation
              JOINT leftHand
              {
                OFFSET 2.395047042602395 0 0
                CHANNELS 3 Yrotation Xrotation Zrotation
                JOINT leftIndexProximal
                {
                  OFFSET 0.5766295810000004 0.04556643899499946 0.17265095988184
                  CHANNELS 3 Yrotation Xrotation Zrotation
                  JOINT leftIndexIntermediate
                  {
                    OFFSET 0.2957229000000008 -0.019352197700001517 -0.007932640616999987
                    CHANNELS 3 Yrotation Xrotation Zrotation
                    JOINT leftIndexDistal
                    {
                      OFFSET 0.19008243099999922 -0.012484908149998475 -0.002786250786000012
                      CHANNELS 3 Yrotation Xrotation Zrotation
                      End Site
                      {
                        OFFSET 0.19008243099999922 -0.012484908149998475 -0.002786250786000012
                      }
                    }
                  }
                }
                JOINT leftMiddleProximal
                {
                  OFFSET 0.5834975091000001 0.0524350405149987 0.02204081888183999
                  CHANNELS 3 Yrotation Xrotation Zrotation
                  JOINT leftMiddleIntermediate
                  {
                    OFFSET 0.33880573540000003 -0.019871473270000717 -0.00000971183179999946
                    CHANNELS 3 Yrotation Xrotation Zrotation
                    JOINT leftMiddleDistal
                    {
                      OFFSET 0.20676022730000088 -0.012221336379999448 0.0001471936708000235
                      CHANNELS 3 Yrotation Xrotation Zrotation
                      End Site
                      {
                        OFFSET 0.20676022730000088 -0.012221336379999448 0.0001471936708000235
                      }
                    }
                  }
                }
                JOINT leftLittleProximal
                {
                  OFFSET 0.5344154683999995 -0.012880921405001189 -0.24414037221816004
                  CHANNELS 3 Yrotation Xrotation Zrotation
                  JOINT leftLittleIntermediate
                  {
                    OFFSET 0.21758961730000093 -0.011650919939999227 0.011893592810000034
                    CHANNELS 3 Yrotation Xrotation Zrotation
                    JOINT leftLittleDistal
                    {
                      OFFSET 0.1475273964999999 -0.008152365682999818 0.006001092492999946
                      CHANNELS 3 Yrotation Xrotation Zrotation
                      End Site
                      {
                        OFFSET 0.1475273964999999 -0.008152365682999818 0.006001092492999946
                      }
                    }
                  }
                }
                JOINT leftRingProximal
                {
                  OFFSET 0.5799399463000003 0.026911854694997794 -0.12150566991816003
                  CHANNELS 3 Yrotation Xrotation Zrotation
                  JOINT leftRingIntermediate
                  {
                    OFFSET 0.26167887460000006 -0.013480186499999602 0.010996293000000053
                    CHANNELS 3 Yrotation Xrotation Zrotation
                    JOINT leftRingDistal
                    {
                      OFFSET 0.17667108799999987 -0.008990287899999228 0.0055541023999999065
                      CHANNELS 3 Yrotation Xrotation Zrotation
                      End Site
                      {
                        OFFSET 0.17667108799999987 -0.008990287899999228 0.0055541023999999065
                      }
                    }
                  }
                }
                JOINT leftThumbProximal
                {
                  OFFSET 0.11018806699999972 -0.09448718900500053 0.17047963138184
                  CHANNELS 3 Yrotation Xrotation Zrotation
                  JOINT leftThumbIntermediate
                  {
                    OFFSET 0.31062601459999983 -0.08126270900000132 0.15443142000000007
                    CHANNELS 3 Yrotation Xrotation Zrotation
                    JOINT leftThumbDistal
                    {
                      OFFSET 0.21627175790000086 -0.08833193599999878 0.018771167799999988
                      CHANNELS 3 Yrotation Xrotation Zrotation
                      End Site
                      {
                        OFFSET 0.21627175790000086 -0.08833193599999878 0.018771167799999988
                      }
                    }
                  }
                }
              }
            }
          }
        }
        JOINT neck
        {
          OFFSET 0 1.5463305265074576 0
          CHANNELS 3 Yrotation Xrotation Zrotation
          JOINT head
          {
            OFFSET 0 0.8456443600000344 0
            CHANNELS 3 Yrotation Xrotation Zrotation
            JOINT leftEye
            {
              OFFSET 0.30408573140000006 0.5104519199999995 0.1276382305
              CHANNELS 3 Yrotation Xrotation Zrotation
              End Site
              {
                OFFSET 0.30408573140000006 0.5104519199999995 0.1276382305
              }
            }
            JOINT rightEye
            {
              OFFSET -0.30409491089999996 0.5104519199999995 0.1276379445
              CHANNELS 3 Yrotation Xrotation Zrotation
              End Site
              {
                OFFSET -0.30409491089999996 0.5104519199999995 0.1276379445
              }
            }
            JOINT jaw
            {
              OFFSET -3.155239131000001e-7 -0.11984121820000082 0.60178107
              CHANNELS 3 Yrotation Xrotation Zrotation
              End Site
              {
                OFFSET -3.155239131000001e-7 -0.11984121820000082 0.60178107
              }
            }
          }
        }
        JOINT rightShoulder
        {
          OFFSET -0.1807303465 1.5087829790000005 0
          CHANNELS 3 Yrotation Xrotation Zrotation
          JOINT rightUpperArm
          {
            OFFSET -0.5985063796536958 0 0
            CHANNELS 3 Yrotation Xrotation Zrotation
            JOINT rightLowerArm
            {
              OFFSET -2.2993322059002854 0 0
              CHANNELS 3 Yrotation Xrotation Zrotation
              JOINT rightHand
              {
                OFFSET -2.395045314457259 0 0
                CHANNELS 3 Yrotation Xrotation Zrotation
                JOINT rightIndexProximal
                {
                  OFFSET -0.5764487688300002 0.0441371204405987 0.17361932004999997
                  CHANNELS 3 Yrotation Xrotation Zrotation
                  JOINT rightIndexIntermediate
                  {
                    OFFSET -0.29573011380000047 -0.01934826376999843 -0.007698921482999974
                    CHANNELS 3 Yrotation Xrotation Zrotation
                    JOINT rightIndexDistal
                    {
                      OFFSET -0.19008373999999884 -0.012503266380000655 -0.0026365778999999897
                      CHANNELS 3 Yrotation Xrotation Zrotation
                      End Site
                      {
                        OFFSET -0.19008373999999884 -0.012503266380000655 -0.0026365778999999897
                      }
                    }
                  }
                }
                JOINT rightMiddleProximal
                {
                  OFFSET -0.5834852037300005 0.05211639405060153 0.02307162440000001
                  CHANNELS 3 Yrotation Xrotation Zrotation
                  JOINT rightMiddleIntermediate
                  {
                    OFFSET -0.33880114510000003 -0.019952774050000954 0.0002455003561999819
                    CHANNELS 3 Yrotation Xrotation Zrotation
                    JOINT rightMiddleDistal
                    {
                      OFFSET -0.20675694929999955 -0.012273788999999091 0.00030209124000002766
                      CHANNELS 3 Yrotation Xrotation Zrotation
                      End Site
                      {
                        OFFSET -0.20675694929999955 -0.012273788999999091 0.00030209124000002766
                      }
                    }
                  }
                }
                JOINT rightLittleProximal
                {
                  OFFSET -0.5346811737299992 -0.011214256288399227 -0.24363941305000003
                  CHANNELS 3 Yrotation Xrotation Zrotation
                  JOINT rightLittleIntermediate
                  {
                    OFFSET -0.21757715980000092 -0.011771559690000988 0.01201554387
                    CHANNELS 3 Yrotation Xrotation Zrotation
                    JOINT rightLittleDistal
                    {
                      OFFSET -0.1475201849000004 -0.00822055339600003 0.006082065407000015
                      CHANNELS 3 Yrotation Xrotation Zrotation
                      End Site
                      {
                        OFFSET -0.1475201849000004 -0.00822055339600003 0.006082065407000015
                      }
                    }
                  }
                }
                JOINT rightRingProximal
                {
                  OFFSET -0.5800810755299999 0.027657985680600072 -0.12066365025000003
                  CHANNELS 3 Yrotation Xrotation Zrotation
                  JOINT rightRingIntermediate
                  {
                    OFFSET -0.26166445029999974 -0.013623118409999302 0.011164098990000045
                    CHANNELS 3 Yrotation Xrotation Zrotation
                    JOINT rightRingDistal
                    {
                      OFFSET -0.17666387530000027 -0.009072900100000503 0.005668185599999959
                      CHANNELS 3 Yrotation Xrotation Zrotation
                      End Site
                      {
                        OFFSET -0.17666387530000027 -0.009072900100000503 0.005668185599999959
                      }
                    }
                  }
                }
                JOINT rightThumbProximal
                {
                  OFFSET -0.10997596379000074 -0.09577489355940072 0.16989765924999997
                  CHANNELS 3 Yrotation Xrotation Zrotation
                  JOINT rightThumbIntermediate
                  {
                    OFFSET -0.31036620999999986 -0.08229339117999834 0.15440884469999996
                    CHANNELS 3 Yrotation Xrotation Zrotation
                    JOINT rightThumbDistal
                    {
                      OFFSET -0.21631306399999906 -0.08825326400000111 0.018656797720000014
                      CHANNELS 3 Yrotation Xrotation Zrotation
                      End Site
                      {
                        OFFSET -0.21631306399999906 -0.08825326400000111 0.018656797720000014
                      }
                    }
                  }
                }
              }
            }
          }
        }
      }
    }
  }
}
MOTION
Frames: 9
Frame Time: 0.03333333333333333
0.5199289711895893 -9.47020143200684 0.2129402809160708 0 -7.001640210868486 90 68.1813299095968 -56.655702367373166 -37.78321558828944 170.14549287465104 72.21718450732801 149.20193000233155 -6.252440544557118 13.926160413339147 -1.9750104779754478 0 0 0 -23.293142725811094 -63.395059840780014 5.238103641732341 -22.26813921360426 76.12910046605737 -20.67261235163593 -1.5778386546791427 8.769887878816288 -4.337840823988828 0 0 0 -0.02194962455808565 26.306481638058703 0.22401025167462682 -0.617705581755515 4.223083304668992 0.7518990144485692 0 0 0 -3.395419347990612 0.15936141879469332 -21.252192442252948 -46.906057971852974 -10.97471220106871 -14.245817899220157 -37.911242879260755 -8.14895701134739 -52.09102343721208 12.948443230553714 -0.6559963186332447 11.351110383018659 0 0 0 0 0 0 0 0 0 0 0 0 0 0 0 0 0 0 0 0 0 0 0 0 0 0 0 0 0 0 0 0 0 0 0 0 0 0 0 0 0 0 0 0 0 0.028276378598008054 24.187937805413107 -8.786346448295726 0.8994877594108157 10.408709309728463 -24.57736540809772 0 0 0 0 0 0 0 0 0 -13.073481818522428 15.042098510667678 -13.157775920507328 -4.705176202309401 29.87557257349002 89.50758119701105 113.20023026428744 16.779831668029843 4.9022607664468785 22.345338090466953 -15.53836206200955 -8.05950396297021 0 0 0 0 0 0 0 0 0 0 0 0 0 0 0 0 0 0 0 0 0 0 0 0 0 0 0 0 0 0 0 0 0 0 0 0 0 0 0 0 0 0 0 0 0
0.5013601177031427 -9.46858906543697 0.20533538590861314 0 -7.001640210868486 90 68.01318859611878 -56.568715017484166 -37.63023115004604 169.70089789576627 72.43025219573877 148.73839165587077 -6.3186347170678046 14.077326752480273 -1.9717341418315373 0 0 0 -23.251175683501796 -63.23811583333947 5.190286422380813 -21.823286612726505 75.82457821135732 -20.213398850389233 -1.5622661334453385 8.924445597385297 -4.348658619908976 0 0 0 -0.021925789320489143 25.9401616986816 0.22409790757085069 -0.6178835270902435 4.422968112859241 0.7497699592943915 0 0 0 -3.9720686125974454 0.0392834225424549 -21.718797434800766 -46.66124126901782 -10.866622988932354 -14.296391937922774 -37.39651412600475 -7.657843659566278 -51.103245737548264 12.494875137825774 -0.561743767116162 10.703196111084761 0 0 0 0 0 0 0 0 0 0 0 0 0 0 0 0 0 0 0 0 0 0 0 0 0 0 0 0 0 0 0 0 0 0 0 0 0 0 0 0 0 0 0 0 0 0.0420332413433791 24.018300153756844 -8.679348682199937 0.8897475864977389 10.403076529632921 -24.445965430647085 0 0 0 0 0 0 0 0 0 -12.765237891519131 14.74517119419982 -12.701883384839457 -4.759826501958377 29.666563150136415 89.19070648335087 112.90164550838405 16.798614488037387 4.731105566635574 21.84407584748071 -15.46630488308002 -8.0032715732903 0 0 0 0 0 0 0 0 0 0 0 0 0 0 0 0 0 0 0 0 0 0 0 0 0 0 0 0 0 0 0 0 0 0 0 0 0 0 0 0 0 0 0 0 0
0.4827912642166961 -9.466976698867098 0.19773049090115546 0 -7.001640210868486 90 67.84585507421639 -56.4814757918263 -37.47805835147063 169.24526852057437 72.64220018959158 148.26382893696317 -6.384863543603769 14.228496282178451 -1.968635638630282 0 0 0 -23.209728360827093 -63.081159743474146 5.14298096997466 -21.397382279193152 75.5192022987804 -19.77312695470361 -1.5467163463747808 9.079004834172958 -4.359438862702272 0 0 0 -0.021902648661339032 25.57384360992378 0.22418513516070027 -0.6180689249604087 4.622852910235735 0.7476396938291076 0 0 0 -4.54772096933794 -0.08548048950354269 -22.184170370306795 -46.41660756187083 -10.758323489636435 -14.34647666355248 -36.873900753379594 -7.175607301784166 -50.11215322646396 12.040276285482024 -0.47262878396650065 10.054565674937637 0 0 0 0 0 0 0 0 0 0 0 0 0 0 0 0 0 0 0 0 0 0 0 0 0 0 0 0 0 0 0 0 0 0 0 0 0 0 0 0 0 0 0 0 0 0.05542564906791201 23.84863957941766 -8.572535717639694 0.8799945282465849 10.397465551877946 -24.31456804283039 0 0 0 0 0 0 0 0 0 -12.459860645749806 14.445887862959438 -12.248263860814676 -4.81303570185979 29.45729487166167 88.87471625114549 112.6029739892549 16.81654114244183 4.559834150864398 21.343063781148796 -15.39377509380823 -7.947714083601142 0 0 0 0 0 0 0 0 0 0 0 0 0 0 0 0 0 0 0 0 0 0 0 0 0 0 0 0 0 0 0 0 0 0 0 0 0 0 0 0 0 0 0 0 0
0.44565328885153166 -9.463751965727356 0.1825204324939688 0 -7.001640210868486 90 67.51360846660647 -56.30626629775304 -37.176154396397706 168.2992856670447 73.06269188790847 147.2800113279854 -6.517441636258509 14.53087120421964 -1.9629737086858803 0 0 0 -23.128339461632624 -62.76717012083344 5.0498646231021045 -20.597731674650497 74.90594146355066 -18.9446962184874 -1.5156818024902687 9.388155738358163 -4.380887253028921 0 0 0 -0.02185846881197803 24.840873062694534 0.22435750963724344 -0.6184618908315397 5.022675920117247 0.7433756443285678 0 0 0 -5.698088746323244 -0.34950260045808124 -23.112811002894166 -45.92778813099644 -10.54104609396654 -14.445198977681262 -35.80432924896593 -6.237550876757015 -48.11779946592832 11.12623204705161 -0.3095485605470536 8.752487173093346 0 0 0 0 0 0 0 0 0 0 0 0 0 0 0 0 0 0 0 0 0 0 0 0 0 0 0 0 0 0 0 0 0 0 0 0 0 0 0 0 0 0 0 0 0 0.0811352977372724 23.509089533604783 -8.359355896761855 0.8604448642339194 10.386308130481849 -24.051718082424188 0 0 0 0 0 0 0 0 0 -11.857043217746108 13.839726623451037 -11.346820552957231 -4.915201236047258 29.03783835109657 88.24507566906438 112.00524112813895 16.84983570627625 4.216861017595367 20.340955114927333 -15.247212475669107 -7.8385504224558735 0 0 0 0 0 0 0 0 0 0 0 0 0 0 0 0 0 0 0 0 0 0 0 0 0 0 0 0 0 0 0 0 0 0 0 0 0 0 0 0 0 0 0 0 0
0.4270844353650851 -9.462139599157485 0.17491540329037547 0 -7.001640210868486 90 67.34865250103562 -56.21829897011312 -37.0263848126526 167.80820454935665 73.27113472486766 146.7700220632494 -6.583792763362916 14.682076105639114 -1.9604112072394646 0 0 0 -23.08837710524058 -62.610135077008046 5.004031957043887 -20.222027688445 74.59817600152596 -18.554581576645123 -1.500197623971957 9.542747089093927 -4.391556036578404 0 0 0 -0.021837474522988447 24.474250954485715 0.22444314419192382 -0.6186693957260146 5.2226091751465695 0.7412408447653904 0 0 0 -6.272539705646123 -0.48870307929384715 -23.575830108189752 -45.68360135486674 -10.432079186005385 -14.493836019585183 -35.25808992269804 -5.782562057960056 -47.11539821094417 10.667068308875415 -0.23568672067082158 8.099361948744557 0 0 0 0 0 0 0 0 0 0 0 0 0 0 0 0 0 0 0 0 0 0 0 0 0 0 0 0 0 0 0 0 0 0 0 0 0 0 0 0 0 0 0 0 0 0.09345505216614115 23.339205120714276 -8.252984666478316 0.8506490159215312 10.380759948468949 -23.92026725505895 0 0 0 0 0 0 0 0 0 -11.559657840894353 13.532956488385363 -10.899056195904182 -4.964173545889794 28.827669707597433 87.93142094698361 111.70617767676798 16.865203168600562 4.045178320846385 19.839938383938268 -15.173194613534786 -7.7849633725491385 0 0 0 0 0 0 0 0 0 0 0 0 0 0 0 0 0 0 0 0 0 0 0 0 0 0 0 0 0 0 0 0 0 0 0 0 0 0 0 0 0 0 0 0 0
0.40851558187863857 -9.460527232587614 0.16731037408678212 0 -7.001640210868486 90 67.1844868040819 -56.13008573353424 -36.877412200721885 167.30461773662836 73.47830037108359 146.24754029716203 -6.65018342243937 14.833284945155201 -1.9580278722308984 0 0 0 -23.04889704515824 -62.45309191018185 4.958677353925438 -19.861260856096916 74.28973817297764 -18.17939435449804 -1.4847355680144063 9.697341898093391 -4.402187749664945 0 0 0 -0.021817140835426196 24.107631027352667 0.22452838028461888 -0.6188844986848921 5.422542757744225 0.7391045268719288 0 0 0 -6.845860658028005 -0.6325340959009431 -24.037442431820814 -45.43959281222019 -10.322910033332883 -14.541983494528242 -34.70436351272115 -5.337163669615655 -46.10945176873739 10.207094261727752 -0.16706590344370223 7.445670078233542 0 0 0 0 0 0 0 0 0 0 0 0 0 0 0 0 0 0 0 0 0 0 0 0 0 0 0 0 0 0 0 0 0 0 0 0 0 0 0 0 0 0 0 0 0 0.10541603795109061 23.169298175251708 -8.146787343552253 0.8408403315254479 10.37523356400626 -23.788816096083146 0 0 0 0 0 0 0 0 0 -11.265125360375476 13.22394393463178 -10.453504965356565 -5.011736189529198 28.617270938154256 87.61860113525985 111.40704257864556 16.87971178494262 3.8734002246449886 19.339168343232814 -15.098728687855163 -7.732066659775176 0 0 0 0 0 0 0 0 0 0 0 0 0 0 0 0 0 0 0 0 0 0 0 0 0 0 0 0 0 0 0 0 0 0 0 0 0 0 0 0 0 0 0 0 0
0.37137787490574536 -9.45730249944787 0.15210031567959545 0 -7.001640210868486 90 66.85851014904404 -55.952945743146216 -36.58183648039292 166.2581992573009 73.88859546400917 145.16335394692098 -6.783092302216958 15.135722228621574 -1.9538002272838262 0 0 0 -22.971335850535784 -62.138925896516334 4.869360958869878 -19.18109378230341 73.67092350001262 -17.47035071266871 -1.4538741840847758 10.006551618477387 -4.4233389648220225 0 0 0 -0.021778630471373808 23.374181721526426 0.22469778378672334 -0.6193378491588204 5.822444252995989 0.7348279011960923 0 0 0 -7.990381480957804 -0.9343722332959089 -24.95739374213191 -44.95204132564303 -10.103939102355502 -14.636825387962414 -33.57598811427367 -4.476656861939152 -44.08878550300415 9.283673943957155 -0.04544581900131574 6.13492765677845 0 0 0 0 0 0 0 0 0 0 0 0 0 0 0 0 0 0 0 0 0 0 0 0 0 0 0 0 0 0 0 0 0 0 0 0 0 0 0 0 0 0 0 0 0 0.12827830031280166 22.829277676541615 -7.934817291145671 0.8211807999378457 10.364249654651143 -23.525867076088165 0 0 0 0 0 0 0 0 0 -10.684190617304852 12.598877474829248 -9.568366426943237 -5.102686565975877 28.19569780049298 86.99523740815361 110.80844401783486 16.906157057185347 3.5295141581178475 18.337841529714805 -14.948392172412728 -7.628303663258681 0 0 0 0 0 0 0 0 0 0 0 0 0 0 0 0 0 0 0 0 0 0 0 0 0 0 0 0 0 0 0 0 0 0 0 0 0 0 0 0 0 0 0 0 0
0.3528090214192988 -9.455690267074136 0.14449528647600213 0 -7.001640210868486 90 66.69669492069303 -55.864027914365394 -36.43523480542799 165.7145454993529 74.09164156159571 144.60083000392694 -6.849611894817663 15.2869510398256 -1.9519562694988117 0 0 0 -22.93325192326491 -61.9818233460779 4.825387925171443 -18.86023692273565 73.36062341037689 -17.13503589041304 -1.4384753399994414 10.161167934890546 -4.433858826676914 0 0 0 -0.021759907478730446 23.007382998000192 0.2247821954595594 -0.6195761828427317 6.02240676084543 0.7326870143196339 0 0 0 -8.561320631152814 -1.092294733213042 -25.415489460094022 -44.708502070582114 -9.994145629620597 -14.683516689981515 -33.00219556681835 -4.062249212230444 -43.0750462914589 8.820524111687797 0.007480397020080421 5.478216817068758 0 0 0 0 0 0 0 0 0 0 0 0 0 0 0 0 0 0 0 0 0 0 0 0 0 0 0 0 0 0 0 0 0 0 0 0 0 0 0 0 0 0 0 0 0 0.1391803368605872 22.659170908052673 -7.829044017924658 0.8113305485441517 10.358789523482821 -23.39436916927759 0 0 0 0 0 0 0 0 0 -10.397836271917049 12.28293879205397 -9.128833127588061 -5.146090144871985 27.984549827852835 86.68469454357235 110.50902362480862 16.918091569159333 3.3574279310884236 17.83736043649744 -14.872543513360688 -7.57745492533963 0 0 0 0 0 0 0 0 0 0 0 0 0 0 0 0 0 0 0 0 0 0 0 0 0 0 0 0 0 0 0 0 0 0 0 0 0 0 0 0 0 0 0 0 0
0.3342401679328522 -9.4540780347004 0.13689025727240878 0 -7.001640210868486 90 66.53565560378202 -55.774875983435685 -36.28941646935885 165.15673235165164 74.2931691099134 144.02415900679537 -6.916174281027486 15.438180970724424 -1.9502933683180361 0 0 0 -22.895617295947336 -61.824708884309615 4.781861735124698 -18.551322162100664 73.0498017654605 -16.81165274862991 -1.4230979251770133 10.315786174212963 -4.444341637646233 0 0 0 -0.021741821024273498 22.640585176941485 0.22486626143552502 -0.6198220720667145 6.222369061559916 0.730544397315147 0 0 0 -9.131012654938722 -1.254768480550927 -25.872015964683712 -44.46513349663147 -9.884158694549384 -14.729718964663018 -32.4214216306275 -3.6580479858124426 -42.057684026624685 8.356797765525355 0.05509306138699925 4.821099040576533 0 0 0 0 0 0 0 0 0 0 0 0 0 0 0 0 0 0 0 0 0 0 0 0 0 0 0 0 0 0 0 0 0 0 0 0 0 0 0 0 0 0 0 0 0 0.14972903372980612 22.4890455537382 -7.723435641193046 0.8014677748176214 10.353351185043937 -23.262872779690042 0 0 0 0 0 0 0 0 0 -10.114306705170073 11.964869842443145 -8.691441822248406 -5.188115101492992 27.77319695908766 86.3749373941506 110.20955012438888 16.929166516030275 3.1852684645001874 17.337124679802976 -14.796269385224814 -7.527310870119759 0 0 0 0 0 0 0 0 0 0 0 0 0 0 0 0 0 0 0 0 0 0 0 0 0 0 0 0 0 0 0 0 0 0 0 0 0 0 0 0 0 0 0 0 0
